<?xml version="1.0" encoding="iso-8859-1"?>
<!-- Uploaded to: SVG Repo, www.svgrepo.com, Generator: SVG Repo Mixer Tools -->
<svg height="800px" width="800px" version="1.1" id="Capa_1" xmlns="http://www.w3.org/2000/svg" xmlns:xlink="http://www.w3.org/1999/xlink" 
	 viewBox="0 0 194.002 194.002" xml:space="preserve">
<g>
	<g>
		<path style="fill:#010002;" d="M97.001,0.004C43.508,0.004,0,43.512,0,97.005c0,53.49,43.508,96.994,97.001,96.994
			c53.486,0,97.001-43.505,97.001-96.994C194.002,43.512,150.487,0.004,97.001,0.004z M97.001,187.75
			c-50.043,0-90.756-40.699-90.756-90.745C6.249,46.962,46.958,6.252,97.001,6.252s90.753,40.709,90.753,90.756
			C187.754,147.051,147.044,187.75,97.001,187.75z"/>
		<path style="fill:#010002;" d="M116.102,84.253l13.7-63.124l-2.509-0.952c-10.193-3.89-20.632-5.855-31.064-5.855
			c-17.365,0-28.602,5.368-29.83,5.987l-2.094,1.063l12.261,63.893l-60.747,18.163l0.025,2.344
			c0.011,1.206,0.619,29.708,28.001,54.076l2.004,1.779l51.442-42.774l-4.151-2.162c-16.52-8.65-14.419-26.752-14.319-27.518
			l0.555-4.395l1.381-0.952c0.064-0.05,7.057-4.796,16.144-4.796c5.304,0,10.304,1.61,14.867,4.792l3.432,2.387l0.315,2.444
			c0.021,0.186,2.108,18.911-14.33,27.503l-4.155,2.172l51.439,42.785l2.011-1.793c27.378-24.358,27.987-52.878,27.997-54.073
			l0.025-2.344L116.102,84.253z M107.985,119.322c11.449-8.074,13.546-20.557,13.818-26.852l50.251,15.024
			c-0.759,7.018-4.595,27.214-23.753,45.362L107.985,119.322z M96.228,20.571c8.8,0,17.647,1.521,26.33,4.52L111.42,76.337
			c-4.542-2.362-9.42-3.554-14.519-3.554c-6.675,0-12.326,2.072-15.679,3.654l-9.87-51.478
			C75.263,23.434,84.16,20.571,96.228,20.571z M46.024,153.365c-19.107-18.091-22.98-38.322-23.746-45.34l50.24-15.028
			c0.279,6.288,2.369,18.764,13.825,26.845L46.024,153.365z"/>
	</g>
</g>
</svg>